<?xml version="1.0" encoding="utf-8"?><svg xmlns="http://www.w3.org/2000/svg" xmlns:xlink="http://www.w3.org/1999/xlink"><symbol viewBox="0 0 24 24" id="arrow-bottom" xmlns="http://www.w3.org/2000/svg"><path fill-rule="evenodd" d="M12.015 13.924l4.97-4.97 1.06 1.061-6.03 6.03-6.03-6.03 1.06-1.06 4.97 4.97z" clip-rule="evenodd"/></symbol><symbol viewBox="0 0 24 24" id="arrow-long-right" xmlns="http://www.w3.org/2000/svg"><path d="M20 12l-6 6-1.06-1.06 4.189-4.19H4v-1.5h13.129l-4.19-4.19L14 6l6 6z"/></symbol><symbol viewBox="0 0 24 24" id="arrow-right" xmlns="http://www.w3.org/2000/svg"><path fill-rule="evenodd" d="M13.44 12.5L8.47 7.53l1.06-1.06 6.03 6.03-6.03 6.03-1.06-1.06 4.97-4.97z" clip-rule="evenodd"/></symbol><symbol viewBox="0 0 24 24" id="cart" xmlns="http://www.w3.org/2000/svg"><path fill-rule="evenodd" d="M19.5 8.5h-4V8a3.5 3.5 0 10-7 0v.5h-4v11h15v-11zm-5.5 3V10h-4v1.5H8.5V10H6v8h12v-8h-2.5v1.5H14zM10 8v.5h4V8a2 2 0 10-4 0z" clip-rule="evenodd"/></symbol><symbol viewBox="0 0 24 24" id="check" xmlns="http://www.w3.org/2000/svg"><path fill-rule="evenodd" d="M19.517 7.544L8.897 17.633 4.392 11.44l1.214-.882 3.496 4.808 9.38-8.91 1.034 1.087z" clip-rule="evenodd"/></symbol><symbol viewBox="0 0 24 24" id="cross" xmlns="http://www.w3.org/2000/svg"><path d="M12.03 13.091l4.97 4.97L18.06 17l-4.969-4.97 4.97-4.97L17 6l-4.97 4.97L7.06 6 6 7.06l4.97 4.97L6 17l1.06 1.06 4.97-4.969z"/></symbol><symbol viewBox="0 0 24 24" id="heart" xmlns="http://www.w3.org/2000/svg"><path fill-rule="evenodd" d="M11.342 17.139c-3.015-1.776-4.802-3.528-5.737-5.049-.97-1.576-1.005-2.858-.643-3.724.362-.867 1.182-1.469 2.254-1.593 1.073-.124 2.42.236 3.726 1.375l.503.438.494-.447c2.523-2.284 5.325-1.438 6.078.244.384.859.368 2.129-.631 3.697-.97 1.52-2.844 3.277-6.044 5.059zm.087-10.525c-1.441-1.076-2.996-1.491-4.385-1.33-1.55.178-2.872 1.081-3.466 2.504-.595 1.424-.401 3.217.749 5.088 1.147 1.865 3.264 3.851 6.632 5.775l.362.207.367-.198c3.555-1.921 5.772-3.906 6.963-5.774 1.197-1.878 1.376-3.684.735-5.115C18.16 5.029 14.4 4.352 11.43 6.614z" clip-rule="evenodd"/></symbol><symbol viewBox="0 0 24 24" id="heart-solid" xmlns="http://www.w3.org/2000/svg"><path d="M11.427 6.847C17.723.98 27.13 10.2 11.309 19-3.658 10.2 4.894.98 11.427 6.847z"/></symbol><symbol viewBox="0 0 573 149" id="massi105-logo-text" xmlns="http://www.w3.org/2000/svg"><path fill-rule="evenodd" clip-rule="evenodd" d="M129.066 0c26.675 0 50.075.45 52 1 1.925.55 5.075 2.8 7 5 1.925 2.2 3.95 6.7 4.5 10 .55 3.3.55 8.25 0 11s-1.9 6.8-3 9-3.8 5.575-6 7.5c-2.2 1.925-5.8 5.3-8 7.5-2.352 2.352-4.206 6.06-4.5 9-.275 2.75-.05 8.6.5 13s1.9 13.175 3 19.5c1.1 6.325 2.675 13.075 3.5 15 .825 1.925 2.625 4.175 4 5 1.85 1.11 2.5 5.4 2.5 16.5 0 8.257-.899 16.124-2 17.5-1.541 1.926-10.609 2.5-39.5 2.5-23.3 0-38.447-.757-40-2-1.729-1.383-2.5-5.394-2.5-13 0-6.05.675-12.575 1.5-14.5 1.039-2.423 2.884-3.654 6-4 2.475-.275 8.325-1.175 13-2 4.675-.825 8.95-2.175 9.5-3 .55-.825 1.9-2.625 3-4s2.225-4.075 2.5-6c.275-1.925-.4-5.075-1.5-7-1.1-1.925-1.55-4.175-1-5 .55-.825 1.225-3.075 1.5-5 .275-1.925-.4-4.625-1.5-6s-2.675-2.95-3.5-3.5c-.825-.55-3.3-1.225-5.5-1.5-2.2-.275-5.125-.95-6.5-1.5-1.768-.707-2.061-1.732-1-3.5.825-1.375 1.275-4.525 1-7-.275-2.475-1.625-6.75-3-9.5l-2.5-5h-7c-3.85 0-11.275-.225-16.5-.5-5.703-.3-12.897-2.099-18-4.5l-8.5-4v-5c0-2.75.225-9.275.5-14.5l.5-9.5 17-8h48.5zm-74.5 8.5l6 .5v28l-5 .5c-2.75.275-6.125-.175-7.5-1s-2.725-3.075-3-5c-.275-1.925-1.175-3.95-2-4.5-.825-.55-2.625-2.125-4-3.5l-2.5-2.5 3.5-.5c2.247-.321 3.68-1.574 4-3.5.275-1.65 1.4-4.35 2.5-6 1.49-2.235 3.53-2.873 8-2.5zm306 5.5c.55 0 3.25.675 6 1.5l5 1.5-3 9-3.5-1c-1.925-.55-4.625-.55-6 0s-2.725 2.125-3 3.5c-.275 1.375.4 3.85 1.5 5.5s4.925 5.925 8.5 9.5 7.175 8.3 8 10.5c.825 2.2 1.275 5.125 1 6.5-.275 1.375-1.175 4.075-2 6-.825 1.925-3.3 4.625-5.5 6-2.275 1.422-7.018 2.284-11 2-3.85-.275-7.9-1.175-9-2-1.1-.825-1.55-3.3-1-5.5l1-4 4 2c2.2 1.1 4.9 1.775 6 1.5 1.1-.275 3.125-1.175 4.5-2 1.519-.911 2.304-3.07 2-5.5-.275-2.2-1.85-5.35-3.5-7-1.65-1.65-5.25-5.475-8-8.5-3.115-3.427-5.188-7.385-5.5-10.5-.275-2.75.4-7.025 1.5-9.5 1.1-2.475 4.025-5.625 6.5-7 2.475-1.375 4.95-2.5 5.5-2.5zm45 0c.55 0 3.25.675 6 1.5l5 1.5-1.5 4.5c-.825 2.475-1.95 4.275-2.5 4-.55-.275-2.35-.725-4-1s-4.125.4-5.5 1.5c-1.566 1.252-2.126 3.308-1.5 5.5.55 1.925 3.25 5.525 6 8 2.75 2.475 6.125 5.85 7.5 7.5 1.375 1.65 3.175 4.575 4 6.5.825 1.925 1.275 4.85 1 6.5-.275 1.65-1.175 4.575-2 6.5-.825 1.925-3.3 4.625-5.5 6-2.333 1.458-7.125 2.292-11.5 2-4.125-.275-8.175-1.4-9-2.5-.825-1.1-.825-3.575 0-5.5l1.5-3.5 4 2c2.2 1.1 4.675 1.775 5.5 1.5.825-.275 2.625-1.175 4-2 1.519-.911 2.304-3.07 2-5.5-.275-2.2-2.075-5.575-4-7.5-1.925-1.925-5.525-5.75-8-8.5-2.646-2.94-4.706-7.06-5-10-.275-2.75.4-7.025 1.5-9.5 1.1-2.475 4.025-5.625 6.5-7 2.475-1.375 4.95-2.5 5.5-2.5zm103 0c1.65 0 4.575.675 6.5 1.5 1.925.825 4.85 3.525 6.5 6 1.65 2.475 3.45 6.975 4 10 .55 3.025.775 9.775.5 15s-.95 11.3-1.5 13.5c-.55 2.2-2.125 6.025-3.5 8.5-1.375 2.475-4.075 5.175-6 6-1.925.825-5.3 1.05-7.5.5s-5.575-2.575-7.5-4.5c-1.982-1.982-4.151-6.754-5-11-.825-4.125-1.275-11.775-1-17 .275-5.225 1.175-11.975 2-15 .825-3.025 3.3-7.3 5.5-9.5s5.35-4 7-4zm-270 1c2.2 0 4.675 1.125 5.5 2.5.825 1.375 3.075 8.8 5 16.5 1.925 7.7 3.95 13.775 4.5 13.5.55-.275 2.575-7.475 4.5-16l3.5-15.5 9-1 1 3.5c.55 1.925 1.45 7.55 2 12.5s1.45 12.6 2 17 1.45 10.7 2 14c.55 3.3.775 7.575.5 9.5l-.5 3.5-9-1-1.5-11.5c-.825-6.325-1.95-11.725-2.5-12-.55-.275-2.35 5.125-4 12l-3 12.5-9-1-3-12c-1.65-6.6-3.45-12.225-4-12.5-.55-.275-1.675 5.125-2.5 12l-1.5 12.5-3.5.5c-1.925.275-4.175.05-5-.5-.825-.55-.6-8.65.5-18s2.675-22.4 3.5-29l1.5-12h4zm73.5 0c2.475 0 4.95.675 5.5 1.5.55.825 2.35 7.8 4 15.5s4.125 20.075 5.5 27.5l2.5 13.5-4 .5c-3.051.381-4.593-.449-6.5-3.5l-2.5-4-5 .5c-3.839.384-5.232 1.313-6 4l-1 3.5-10-1 13-58h4.5zm134.5 1v20c0 11-.225 24.275-.5 29.5l-.5 9.5-10-1V54c0-11 .225-24.275.5-29.5l.5-9.5 10 1zm27.5-.5l4.5.5v20c0 11-.225 24.275-.5 29.5l-.5 9.5-11-1V51c0-12.65-.675-22.775-1.5-22.5-.825.275-1.725-1.3-2-3.5-.339-2.713.626-4.965 3-7 2.102-1.802 5.298-2.8 8-2.5zm72.5-.5c1.1 0 6.275.225 11.5.5l9.5.5-1 8h-15l-1 9 5 1c2.75.55 6.575 2.8 8.5 5 1.925 2.2 3.95 5.8 4.5 8 .55 2.2.55 6.7 0 10s-1.9 7.8-3 10-3.575 4.9-5.5 6c-1.925 1.1-6.2 1.775-9.5 1.5-3.3-.275-7.575-1.175-9.5-2l-3.5-1.5 2-4c1.1-2.2 2.675-3.775 3.5-3.5l4.5 1.5c1.65.55 4.575.1 6.5-1 2.161-1.235 3.883-3.913 4.5-7 .55-2.75.1-7.025-1-9.5-1.1-2.475-3.35-4.95-5-5.5-1.65-.55-4.125-.55-5.5 0s-3.175.775-4 .5a1.586 1.586 0 01-1-2c.275-.825.5-4.65.5-8.5 0-3.85.45-9.25 1-12 .556-2.779 1.888-5 3-5zm-544 5c1.1 0 3.125 1.125 4.5 2.5s2.05 2.95 1.5 3.5c-.55.55-2.8.55-5 0-2.819-.705-3.852-1.738-3.5-3.5.275-1.375 1.4-2.5 2.5-2.5zm10.5 0c1.375 0 4.075 1.125 6 2.5 1.925 1.375 3.275 2.95 3 3.5-.275.55-1.625.775-3 .5s-3.85-1.85-5.5-3.5c-2.378-2.378-2.482-3-.5-3zm13 0c1.375 0 4.075 1.125 6 2.5 1.925 1.375 3.275 2.95 3 3.5-.275.55-1.625.775-3 .5s-3.85-1.85-5.5-3.5c-2.378-2.378-2.482-3-.5-3zm484 4c-1.549 0-3.07 1.711-4 4.5-.825 2.475-1.725 8.55-2 13.5-.275 4.95-.05 11.7.5 15 .55 3.3 2.125 6.9 3.5 8 1.861 1.489 3.011 1.361 4.5-.5 1.1-1.375 2.45-6.1 3-10.5.55-4.4 1-10.475 1-13.5 0-3.025-.9-7.975-2-11-1.288-3.543-2.889-5.5-4.5-5.5zm-455 5.5c-1.375-.275-2.725.4-3 1.5-.275 1.1.4 2.45 1.5 3 1.176.588 2.412-.03 3-1.5.671-1.677.177-2.665-1.5-3zm257.5 12.5c-.566-1.132-1.651 1.254-2.5 5.5l-1.5 7.5 3 .5c1.65.275 3.225-.4 3.5-1.5.275-1.1.05-3.8-.5-6s-1.45-4.9-2-6zm-86.5 66c.825 0 1.5 4.725 1.5 10.5 0 7.201.785 11.128 2.5 12.5 1.466 1.173 3.947 1.38 6 .5l3.5-1.5v-10.5c0-5.775.675-10.725 1.5-11 .825-.275 1.5 4 1.5 9.5s-.675 11.575-1.5 13.5c-1.039 2.423-2.884 3.654-6 4-2.475.275-5.85-.625-7.5-2-2.34-1.95-3-5.03-3-14 0-6.325.675-11.5 1.5-11.5zm34 0c4.125 0 7.725.45 8 1 .275.55-.625 1.225-2 1.5-1.375.275-2.725 1.85-3 3.5-.275 1.65-.725 7.275-1 12.5s-1.175 9.05-2 8.5c-.825-.55-1.5-5.95-1.5-12v-11l-3.5-1c-1.925-.55-3.275-1.45-3-2 .275-.55 3.875-1 8-1zm25.5 0c3.3 0 6.225.45 6.5 1 .275.55-1.975 1.45-5 2s-5.275 1.45-5 2c.275.55.275 1.225 0 1.5-.275.275-.275 1.4 0 2.5s2.075 2.225 4 2.5c1.925.275 3.725.95 4 1.5.275.55-1.525 1.45-4 2l-4.5 1 1 8 4.5.5c2.475.275 4.725 1.175 5 2 .275.825-2.425 1.5-6 1.5h-6.5l-.5-4.5c-.275-2.475-.275-8.775 0-14l.5-9.5h6zm19 0c.55 0 1.675.9 2.5 2s3.075 5.15 5 9l3.5 7 .5-9c.275-4.95 1.175-8.775 2-8.5.825.275 1.5 5.9 1.5 12.5s-.45 12.675-1 13.5c-.579.869-2.473-1.025-4.5-4.5-1.925-3.3-4.4-7.35-5.5-9l-2-3v9c0 4.95-.675 8.775-1.5 8.5-.825-.275-1.5-6.575-1.5-14s.45-13.5 1-13.5zm33 0c2.2 0 4.9 1.125 6 2.5 1.333 1.667 1.333 2.333 0 2-1.1-.275-2.675-.95-3.5-1.5-.825-.55-2.4-.775-3.5-.5s-2.225 1.4-2.5 2.5c-.275 1.1 2.2 4.025 5.5 6.5 3.3 2.475 6.225 5.85 6.5 7.5.275 1.65-.175 4.125-1 5.5s-2.85 2.725-4.5 3c-1.65.275-4.125.05-5.5-.5s-2.95-1.9-3.5-3c-.709-1.419.162-1.564 3-.5 2.2.825 5.125.825 6.5 0s2.275-2.4 2-3.5c-.275-1.1-3.2-3.8-6.5-6s-6.225-5.125-6.5-6.5c-.275-1.375.4-3.625 1.5-5s3.8-2.5 6-2.5zm21 0c.55 0 1 6.075 1 13.5s-.45 13.725-1 14c-.55.275-1.225-1.525-1.5-4-.275-2.475-.275-8.775 0-14s.95-9.5 1.5-9.5zm15 0c.55 0 1 5.4 1 12v12l5 .5c2.75.275 5.225 1.175 5.5 2 .275.825-2.425 1.5-6 1.5h-6.5l-.5-4.5c-.275-2.475-.275-8.775 0-14s.95-9.5 1.5-9.5zm22 0c.55 0 1.45.9 2 2s.775 7.4.5 14-1.175 11.775-2 11.5c-.825-.275-1.5-6.575-1.5-14s.45-13.5 1-13.5zm34 0c1.126 0 3.529 4.151 5.5 9.5l3.5 9.5 3.5-9.5c2.687-7.294 4.081-9.384 6-9 1.921.384 2.5 3.394 2.5 13 0 6.875-.675 12.95-1.5 13.5-.85.567-1.5-1.383-1.5-4.5 0-3.025-.225-7.525-.5-10l-.5-4.5-3 8c-1.65 4.4-3.45 8.675-4 9.5-.55.825-1.45.825-2 0s-2.35-5.1-4-9.5l-3-8v8.5c0 4.675-.45 9.175-1 10-.557.836-1.443-.271-2-2.5-.55-2.2-.775-4.9-.5-6 .275-1.1.275-4.025 0-6.5-.275-2.475-.275-6.075 0-8 .275-1.925 1.4-3.5 2.5-3.5zm40.5.5c.825.275 2.85 4.55 4.5 9.5s3.225 11.025 3.5 13.5c.275 2.475.05 4.275-.5 4-.55-.275-1.45-1.625-2-3s-2.8-2.725-5-3c-2.948-.369-4.526.42-6 3-1.1 1.925-2.45 3.275-3 3-.55-.275.8-6.575 3-14s4.675-13.275 5.5-13zm21 0c.825.275 1.5 2.75 1.5 5.5v5l4-5c2.2-2.75 4.9-5.225 6-5.5 1.28-.32 1.1 1.121-.5 4l-2.5 4.5 3 8.5c1.65 4.675 2.325 8.95 1.5 9.5-.89.594-2.719-2.048-4.5-6.5-1.781-4.452-3.61-7.094-4.5-6.5-.825.55-1.725 3.25-2 6-.275 2.75-.95 5.675-1.5 6.5-.588.882-1.412.47-2-1-.55-1.375-.775-7.675-.5-14s1.175-11.275 2-11zm27-.5c.825 0 1.5 6.075 1.5 13.5s-.675 13.725-1.5 14c-.825.275-1.5-5.8-1.5-13.5s.675-14 1.5-14zm18.5 0c4.4 0 8.225.45 8.5 1 .275.55-.625 1.225-2 1.5-1.375.275-2.725 1.85-3 3.5-.275 1.65-.725 7.275-1 12.5s-1.175 9.275-2 9c-.825-.275-1.5-5.675-1.5-12V112l-3-1c-1.65-.55-3.225-1.45-3.5-2-.275-.55 3.1-1 7.5-1zm27 0c.55 0 2.125 3.375 3.5 7.5l4 12c.825 2.475 1.275 5.4 1 6.5-.275 1.1-.95 1.775-1.5 1.5-.55-.275-1.225-1.625-1.5-3-.313-1.566-2.181-2.687-5-3-3.561-.396-4.813.231-6 3-.825 1.925-1.95 3.275-2.5 3-.55-.275-.1-3.875 1-8s2.9-10.2 4-13.5c1.1-3.3 2.45-6 3-6zm-92.5 11.5l-1.5-4.5-2 10 2.5-.5c1.917-.383 2.15-1.55 1-5zm92-3.5c-.275 0-.95 2.025-1.5 4.5l-1 4.5 6-1-1.5-4c-.825-2.2-1.725-4-2-4z"/></symbol><symbol viewBox="0 0 18 14" id="menu" xmlns="http://www.w3.org/2000/svg"><path d="M0 8V6h18v2H0zm0-8h18v2H0V0zm14 14H0v-2h14v2z"/></symbol><symbol viewBox="0 0 24 24" id="minus" xmlns="http://www.w3.org/2000/svg"><path fill-rule="evenodd" d="M18 12.75H6v-1.5h12v1.5z" clip-rule="evenodd"/></symbol><symbol viewBox="0 0 24 24" id="plus" xmlns="http://www.w3.org/2000/svg"><path d="M12.75 11.25V6h-1.5v5.25H6v1.5h5.25V18h1.5v-5.25H18v-1.5h-5.25z"/></symbol><symbol viewBox="0 0 24 24" id="print" xmlns="http://www.w3.org/2000/svg"><path d="M7 3h10v3H7V3z"/><path fill-rule="evenodd" d="M6 18v3h12v-3h3V7H3v11h3zm10.5-3.5h-9v5h9v-5zM19 10a1 1 0 11-2 0 1 1 0 012 0z" clip-rule="evenodd"/></symbol><symbol viewBox="0 0 24 24" id="star" xmlns="http://www.w3.org/2000/svg"><path fill-rule="evenodd" d="M14.97 9.324L12.412 4 9.854 9.324 4 10.111l4.273 4.078L7.213 20l5.199-2.804L17.61 20l-1.06-5.81 4.273-4.079-5.854-.787zm1.968 2.05l-3.15-.424-1.376-2.865-1.377 2.865-3.15.424 2.3 2.194-.57 3.127 2.797-1.509 2.797 1.51-.57-3.128 2.3-2.194z" clip-rule="evenodd"/></symbol><symbol viewBox="0 0 24 24" id="star-solid" xmlns="http://www.w3.org/2000/svg"><path d="M11.412 4l2.557 5.324 5.854.787-4.273 4.078L16.61 20l-5.198-2.804L6.213 20l1.06-5.81L3 10.11l5.854-.787L11.412 4z"/></symbol><symbol viewBox="0 0 32 32" id="success" xmlns="http://www.w3.org/2000/svg"><circle cx="16" cy="16" r="16"/><path fill-rule="evenodd" d="M23.686 13.227l-9.749 9.208-4.685-5.27 1.495-1.33 3.316 3.73 8.25-7.792 1.373 1.454z" clip-rule="evenodd"/></symbol><symbol viewBox="0 0 20 20" id="user" xmlns="http://www.w3.org/2000/svg"><path d="M13.7 10.7C15.1 9.6 16 7.9 16 6c0-3.3-2.7-6-6-6S4 2.7 4 6c0 1.9.9 3.6 2.3 4.7C2.6 12.2 0 15.8 0 20h2c0-4.4 3.6-8 8-8s8 3.6 8 8h2c0-4.2-2.6-7.8-6.3-9.3zM6 6c0-2.2 1.8-4 4-4s4 1.8 4 4-1.8 4-4 4-4-1.8-4-4z"/></symbol></svg>