<svg width="573" height="149" viewBox="0 0 573 149" fill="none" xmlns="http://www.w3.org/2000/svg">
<path fill-rule="evenodd" clip-rule="evenodd" d="M129.066 0C155.741 0 179.141 0.45 181.066 1C182.991 1.55 186.141 3.8 188.066 6C189.991 8.2 192.016 12.7 192.566 16C193.116 19.3 193.116 24.25 192.566 27C192.016 29.75 190.666 33.8 189.566 36C188.466 38.2 185.766 41.575 183.566 43.5C181.366 45.425 177.766 48.8 175.566 51C173.214 53.352 171.36 57.06 171.066 60C170.791 62.75 171.016 68.6 171.566 73C172.116 77.4 173.466 86.175 174.566 92.5C175.666 98.825 177.241 105.575 178.066 107.5C178.891 109.425 180.691 111.675 182.066 112.5C183.916 113.61 184.566 117.9 184.566 129C184.566 137.257 183.667 145.124 182.566 146.5C181.025 148.426 171.957 149 143.066 149C119.766 149 104.619 148.243 103.066 147C101.337 145.617 100.566 141.606 100.566 134C100.566 127.95 101.241 121.425 102.066 119.5C103.105 117.077 104.95 115.846 108.066 115.5C110.541 115.225 116.391 114.325 121.066 113.5C125.741 112.675 130.016 111.325 130.566 110.5C131.116 109.675 132.466 107.875 133.566 106.5C134.666 105.125 135.791 102.425 136.066 100.5C136.341 98.575 135.666 95.425 134.566 93.5C133.466 91.575 133.016 89.325 133.566 88.5C134.116 87.675 134.791 85.425 135.066 83.5C135.341 81.575 134.666 78.875 133.566 77.5C132.466 76.125 130.891 74.55 130.066 74C129.241 73.45 126.766 72.775 124.566 72.5C122.366 72.225 119.441 71.55 118.066 71C116.298 70.293 116.005 69.268 117.066 67.5C117.891 66.125 118.341 62.975 118.066 60.5C117.791 58.025 116.441 53.75 115.066 51L112.566 46H105.566C101.716 46 94.2913 45.775 89.0663 45.5C83.3633 45.2 76.1693 43.401 71.0663 41L62.5663 37V32C62.5663 29.25 62.7913 22.725 63.0663 17.5L63.5663 8L80.5663 0H129.066ZM54.5663 8.5L60.5663 9V37L55.5663 37.5C52.8163 37.775 49.4413 37.325 48.0663 36.5C46.6913 35.675 45.3413 33.425 45.0663 31.5C44.7913 29.575 43.8913 27.55 43.0663 27C42.2413 26.45 40.4413 24.875 39.0663 23.5L36.5663 21L40.0663 20.5C42.3133 20.179 43.7453 18.926 44.0663 17C44.3413 15.35 45.4663 12.65 46.5663 11C48.0563 8.765 50.0953 8.127 54.5663 8.5ZM360.566 14C361.116 14 363.816 14.675 366.566 15.5L371.566 17L368.566 26L365.066 25C363.141 24.45 360.441 24.45 359.066 25C357.691 25.55 356.341 27.125 356.066 28.5C355.791 29.875 356.466 32.35 357.566 34C358.666 35.65 362.491 39.925 366.066 43.5C369.641 47.075 373.241 51.8 374.066 54C374.891 56.2 375.341 59.125 375.066 60.5C374.791 61.875 373.891 64.575 373.066 66.5C372.241 68.425 369.766 71.125 367.566 72.5C365.291 73.922 360.548 74.784 356.566 74.5C352.716 74.225 348.666 73.325 347.566 72.5C346.466 71.675 346.016 69.2 346.566 67L347.566 63L351.566 65C353.766 66.1 356.466 66.775 357.566 66.5C358.666 66.225 360.691 65.325 362.066 64.5C363.585 63.589 364.37 61.43 364.066 59C363.791 56.8 362.216 53.65 360.566 52C358.916 50.35 355.316 46.525 352.566 43.5C349.451 40.073 347.378 36.115 347.066 33C346.791 30.25 347.466 25.975 348.566 23.5C349.666 21.025 352.591 17.875 355.066 16.5C357.541 15.125 360.016 14 360.566 14ZM405.566 14C406.116 14 408.816 14.675 411.566 15.5L416.566 17L415.066 21.5C414.241 23.975 413.116 25.775 412.566 25.5C412.016 25.225 410.216 24.775 408.566 24.5C406.916 24.225 404.441 24.9 403.066 26C401.5 27.252 400.94 29.308 401.566 31.5C402.116 33.425 404.816 37.025 407.566 39.5C410.316 41.975 413.691 45.35 415.066 47C416.441 48.65 418.241 51.575 419.066 53.5C419.891 55.425 420.341 58.35 420.066 60C419.791 61.65 418.891 64.575 418.066 66.5C417.241 68.425 414.766 71.125 412.566 72.5C410.233 73.958 405.441 74.792 401.066 74.5C396.941 74.225 392.891 73.1 392.066 72C391.241 70.9 391.241 68.425 392.066 66.5L393.566 63L397.566 65C399.766 66.1 402.241 66.775 403.066 66.5C403.891 66.225 405.691 65.325 407.066 64.5C408.585 63.589 409.37 61.43 409.066 59C408.791 56.8 406.991 53.425 405.066 51.5C403.141 49.575 399.541 45.75 397.066 43C394.42 40.06 392.36 35.94 392.066 33C391.791 30.25 392.466 25.975 393.566 23.5C394.666 21.025 397.591 17.875 400.066 16.5C402.541 15.125 405.016 14 405.566 14ZM508.566 14C510.216 14 513.141 14.675 515.066 15.5C516.991 16.325 519.916 19.025 521.566 21.5C523.216 23.975 525.016 28.475 525.566 31.5C526.116 34.525 526.341 41.275 526.066 46.5C525.791 51.725 525.116 57.8 524.566 60C524.016 62.2 522.441 66.025 521.066 68.5C519.691 70.975 516.991 73.675 515.066 74.5C513.141 75.325 509.766 75.55 507.566 75C505.366 74.45 501.991 72.425 500.066 70.5C498.084 68.518 495.915 63.746 495.066 59.5C494.241 55.375 493.791 47.725 494.066 42.5C494.341 37.275 495.241 30.525 496.066 27.5C496.891 24.475 499.366 20.2 501.566 18C503.766 15.8 506.916 14 508.566 14ZM238.566 15C240.766 15 243.241 16.125 244.066 17.5C244.891 18.875 247.141 26.3 249.066 34C250.991 41.7 253.016 47.775 253.566 47.5C254.116 47.225 256.141 40.025 258.066 31.5L261.566 16L270.566 15L271.566 18.5C272.116 20.425 273.016 26.05 273.566 31C274.116 35.95 275.016 43.6 275.566 48C276.116 52.4 277.016 58.7 277.566 62C278.116 65.3 278.341 69.575 278.066 71.5L277.566 75L268.566 74L267.066 62.5C266.241 56.175 265.116 50.775 264.566 50.5C264.016 50.225 262.216 55.625 260.566 62.5L257.566 75L248.566 74L245.566 62C243.916 55.4 242.116 49.775 241.566 49.5C241.016 49.225 239.891 54.625 239.066 61.5L237.566 74L234.066 74.5C232.141 74.775 229.891 74.55 229.066 74C228.241 73.45 228.466 65.35 229.566 56C230.666 46.65 232.241 33.6 233.066 27L234.566 15H238.566ZM312.066 15C314.541 15 317.016 15.675 317.566 16.5C318.116 17.325 319.916 24.3 321.566 32C323.216 39.7 325.691 52.075 327.066 59.5L329.566 73L325.566 73.5C322.515 73.881 320.973 73.051 319.066 70L316.566 66L311.566 66.5C307.727 66.884 306.334 67.813 305.566 70.5L304.566 74L294.566 73L307.566 15H312.066ZM446.566 16V36C446.566 47 446.341 60.275 446.066 65.5L445.566 75L435.566 74V54C435.566 43 435.791 29.725 436.066 24.5L436.566 15L446.566 16ZM474.066 15.5L478.566 16V36C478.566 47 478.341 60.275 478.066 65.5L477.566 75L466.566 74V51C466.566 38.35 465.891 28.225 465.066 28.5C464.241 28.775 463.341 27.2 463.066 25C462.727 22.287 463.692 20.035 466.066 18C468.168 16.198 471.364 15.2 474.066 15.5ZM546.566 15C547.666 15 552.841 15.225 558.066 15.5L567.566 16L566.566 24H551.566L550.566 33L555.566 34C558.316 34.55 562.141 36.8 564.066 39C565.991 41.2 568.016 44.8 568.566 47C569.116 49.2 569.116 53.7 568.566 57C568.016 60.3 566.666 64.8 565.566 67C564.466 69.2 561.991 71.9 560.066 73C558.141 74.1 553.866 74.775 550.566 74.5C547.266 74.225 542.991 73.325 541.066 72.5L537.566 71L539.566 67C540.666 64.8 542.241 63.225 543.066 63.5C543.891 63.775 545.916 64.45 547.566 65C549.216 65.55 552.141 65.1 554.066 64C556.227 62.765 557.949 60.087 558.566 57C559.116 54.25 558.666 49.975 557.566 47.5C556.466 45.025 554.216 42.55 552.566 42C550.916 41.45 548.441 41.45 547.066 42C545.691 42.55 543.891 42.775 543.066 42.5C542.241 42.225 541.791 41.325 542.066 40.5C542.341 39.675 542.566 35.85 542.566 32C542.566 28.15 543.016 22.75 543.566 20C544.122 17.221 545.454 15 546.566 15ZM2.5663 20C3.6663 20 5.6913 21.125 7.0663 22.5C8.4413 23.875 9.11629 25.45 8.56629 26C8.01629 26.55 5.7663 26.55 3.5663 26C0.747295 25.295 -0.285705 24.262 0.0662951 22.5C0.341295 21.125 1.4663 20 2.5663 20ZM13.0663 20C14.4413 20 17.1413 21.125 19.0663 22.5C20.9913 23.875 22.3413 25.45 22.0663 26C21.7913 26.55 20.4413 26.775 19.0663 26.5C17.6913 26.225 15.2163 24.65 13.5663 23C11.1883 20.622 11.0843 20 13.0663 20ZM26.0663 20C27.4413 20 30.1413 21.125 32.0663 22.5C33.9913 23.875 35.3413 25.45 35.0663 26C34.7913 26.55 33.4413 26.775 32.0663 26.5C30.6913 26.225 28.2163 24.65 26.5663 23C24.1883 20.622 24.0843 20 26.0663 20ZM510.066 24C508.517 24 506.996 25.711 506.066 28.5C505.241 30.975 504.341 37.05 504.066 42C503.791 46.95 504.016 53.7 504.566 57C505.116 60.3 506.691 63.9 508.066 65C509.927 66.489 511.077 66.361 512.566 64.5C513.666 63.125 515.016 58.4 515.566 54C516.116 49.6 516.566 43.525 516.566 40.5C516.566 37.475 515.666 32.525 514.566 29.5C513.278 25.957 511.677 24 510.066 24ZM55.0663 29.5C53.6913 29.225 52.3413 29.9 52.0663 31C51.7913 32.1 52.4663 33.45 53.5663 34C54.7423 34.588 55.9783 33.97 56.5663 32.5C57.2373 30.823 56.7433 29.835 55.0663 29.5ZM312.566 42C312 40.868 310.915 43.254 310.066 47.5L308.566 55L311.566 55.5C313.216 55.775 314.791 55.1 315.066 54C315.341 52.9 315.116 50.2 314.566 48C314.016 45.8 313.116 43.1 312.566 42ZM226.066 108C226.891 108 227.566 112.725 227.566 118.5C227.566 125.701 228.351 129.628 230.066 131C231.532 132.173 234.013 132.38 236.066 131.5L239.566 130V119.5C239.566 113.725 240.241 108.775 241.066 108.5C241.891 108.225 242.566 112.5 242.566 118C242.566 123.5 241.891 129.575 241.066 131.5C240.027 133.923 238.182 135.154 235.066 135.5C232.591 135.775 229.216 134.875 227.566 133.5C225.226 131.55 224.566 128.47 224.566 119.5C224.566 113.175 225.241 108 226.066 108ZM260.066 108C264.191 108 267.791 108.45 268.066 109C268.341 109.55 267.441 110.225 266.066 110.5C264.691 110.775 263.341 112.35 263.066 114C262.791 115.65 262.341 121.275 262.066 126.5C261.791 131.725 260.891 135.55 260.066 135C259.241 134.45 258.566 129.05 258.566 123V112L255.066 111C253.141 110.45 251.791 109.55 252.066 109C252.341 108.45 255.941 108 260.066 108ZM285.566 108C288.866 108 291.791 108.45 292.066 109C292.341 109.55 290.091 110.45 287.066 111C284.041 111.55 281.791 112.45 282.066 113C282.341 113.55 282.341 114.225 282.066 114.5C281.791 114.775 281.791 115.9 282.066 117C282.341 118.1 284.141 119.225 286.066 119.5C287.991 119.775 289.791 120.45 290.066 121C290.341 121.55 288.541 122.45 286.066 123L281.566 124L282.566 132L287.066 132.5C289.541 132.775 291.791 133.675 292.066 134.5C292.341 135.325 289.641 136 286.066 136H279.566L279.066 131.5C278.791 129.025 278.791 122.725 279.066 117.5L279.566 108H285.566ZM304.566 108C305.116 108 306.241 108.9 307.066 110C307.891 111.1 310.141 115.15 312.066 119L315.566 126L316.066 117C316.341 112.05 317.241 108.225 318.066 108.5C318.891 108.775 319.566 114.4 319.566 121C319.566 127.6 319.116 133.675 318.566 134.5C317.987 135.369 316.093 133.475 314.066 130C312.141 126.7 309.666 122.65 308.566 121L306.566 118V127C306.566 131.95 305.891 135.775 305.066 135.5C304.241 135.225 303.566 128.925 303.566 121.5C303.566 114.075 304.016 108 304.566 108ZM337.566 108C339.766 108 342.466 109.125 343.566 110.5C344.899 112.167 344.899 112.833 343.566 112.5C342.466 112.225 340.891 111.55 340.066 111C339.241 110.45 337.666 110.225 336.566 110.5C335.466 110.775 334.341 111.9 334.066 113C333.791 114.1 336.266 117.025 339.566 119.5C342.866 121.975 345.791 125.35 346.066 127C346.341 128.65 345.891 131.125 345.066 132.5C344.241 133.875 342.216 135.225 340.566 135.5C338.916 135.775 336.441 135.55 335.066 135C333.691 134.45 332.116 133.1 331.566 132C330.857 130.581 331.728 130.436 334.566 131.5C336.766 132.325 339.691 132.325 341.066 131.5C342.441 130.675 343.341 129.1 343.066 128C342.791 126.9 339.866 124.2 336.566 122C333.266 119.8 330.341 116.875 330.066 115.5C329.791 114.125 330.466 111.875 331.566 110.5C332.666 109.125 335.366 108 337.566 108ZM358.566 108C359.116 108 359.566 114.075 359.566 121.5C359.566 128.925 359.116 135.225 358.566 135.5C358.016 135.775 357.341 133.975 357.066 131.5C356.791 129.025 356.791 122.725 357.066 117.5C357.341 112.275 358.016 108 358.566 108ZM373.566 108C374.116 108 374.566 113.4 374.566 120V132L379.566 132.5C382.316 132.775 384.791 133.675 385.066 134.5C385.341 135.325 382.641 136 379.066 136H372.566L372.066 131.5C371.791 129.025 371.791 122.725 372.066 117.5C372.341 112.275 373.016 108 373.566 108ZM395.566 108C396.116 108 397.016 108.9 397.566 110C398.116 111.1 398.341 117.4 398.066 124C397.791 130.6 396.891 135.775 396.066 135.5C395.241 135.225 394.566 128.925 394.566 121.5C394.566 114.075 395.016 108 395.566 108ZM429.566 108C430.692 108 433.095 112.151 435.066 117.5L438.566 127L442.066 117.5C444.753 110.206 446.147 108.116 448.066 108.5C449.987 108.884 450.566 111.894 450.566 121.5C450.566 128.375 449.891 134.45 449.066 135C448.216 135.567 447.566 133.617 447.566 130.5C447.566 127.475 447.341 122.975 447.066 120.5L446.566 116L443.566 124C441.916 128.4 440.116 132.675 439.566 133.5C439.016 134.325 438.116 134.325 437.566 133.5C437.016 132.675 435.216 128.4 433.566 124L430.566 116V124.5C430.566 129.175 430.116 133.675 429.566 134.5C429.009 135.336 428.123 134.229 427.566 132C427.016 129.8 426.791 127.1 427.066 126C427.341 124.9 427.341 121.975 427.066 119.5C426.791 117.025 426.791 113.425 427.066 111.5C427.341 109.575 428.466 108 429.566 108ZM470.066 108.5C470.891 108.775 472.916 113.05 474.566 118C476.216 122.95 477.791 129.025 478.066 131.5C478.341 133.975 478.116 135.775 477.566 135.5C477.016 135.225 476.116 133.875 475.566 132.5C475.016 131.125 472.766 129.775 470.566 129.5C467.618 129.131 466.04 129.92 464.566 132.5C463.466 134.425 462.116 135.775 461.566 135.5C461.016 135.225 462.366 128.925 464.566 121.5C466.766 114.075 469.241 108.225 470.066 108.5ZM491.066 108.5C491.891 108.775 492.566 111.25 492.566 114V119L496.566 114C498.766 111.25 501.466 108.775 502.566 108.5C503.846 108.18 503.666 109.621 502.066 112.5L499.566 117L502.566 125.5C504.216 130.175 504.891 134.45 504.066 135C503.176 135.594 501.347 132.952 499.566 128.5C497.785 124.048 495.956 121.406 495.066 122C494.241 122.55 493.341 125.25 493.066 128C492.791 130.75 492.116 133.675 491.566 134.5C490.978 135.382 490.154 134.97 489.566 133.5C489.016 132.125 488.791 125.825 489.066 119.5C489.341 113.175 490.241 108.225 491.066 108.5ZM518.066 108C518.891 108 519.566 114.075 519.566 121.5C519.566 128.925 518.891 135.225 518.066 135.5C517.241 135.775 516.566 129.7 516.566 122C516.566 114.3 517.241 108 518.066 108ZM536.566 108C540.966 108 544.791 108.45 545.066 109C545.341 109.55 544.441 110.225 543.066 110.5C541.691 110.775 540.341 112.35 540.066 114C539.791 115.65 539.341 121.275 539.066 126.5C538.791 131.725 537.891 135.775 537.066 135.5C536.241 135.225 535.566 129.825 535.566 123.5V112L532.566 111C530.916 110.45 529.341 109.55 529.066 109C528.791 108.45 532.166 108 536.566 108ZM563.566 108C564.116 108 565.691 111.375 567.066 115.5C568.441 119.625 570.241 125.025 571.066 127.5C571.891 129.975 572.341 132.9 572.066 134C571.791 135.1 571.116 135.775 570.566 135.5C570.016 135.225 569.341 133.875 569.066 132.5C568.753 130.934 566.885 129.813 564.066 129.5C560.505 129.104 559.253 129.731 558.066 132.5C557.241 134.425 556.116 135.775 555.566 135.5C555.016 135.225 555.466 131.625 556.566 127.5C557.666 123.375 559.466 117.3 560.566 114C561.666 110.7 563.016 108 563.566 108ZM471.066 119.5L469.566 115L467.566 125L470.066 124.5C471.983 124.117 472.216 122.95 471.066 119.5ZM563.066 116C562.791 116 562.116 118.025 561.566 120.5L560.566 125L566.566 124L565.066 120C564.241 117.8 563.341 116 563.066 116Z" fill="#34859F"/>
</svg>
